<?xml version="1.0" encoding="UTF-8"?>
<svg width="42px" height="26px" viewBox="0 0 42 26" version="1.1" xmlns="http://www.w3.org/2000/svg" xmlns:xlink="http://www.w3.org/1999/xlink">
    <title>logo</title>
    <g stroke="none" stroke-width="1" fill="none" fill-rule="evenodd">
        <g transform="translate(-24.000000, -19.000000)" fill="#613EDA" fill-rule="nonzero">
            <g transform="translate(24.000000, 19.000000)">
                <g opacity="0.699999988" transform="translate(0.000000, 0.001587)">
                    <path d="M0.976276021,2.05753659 C0.712748626,2.04372874 0.464568347,1.92931819 0.282918123,1.73790098 C0.101267899,1.54648377 0,1.2926572 0,1.02876829 C0,0.764879389 0.101267899,0.511051738 0.282918123,0.319634529 C0.464568347,0.12821732 0.712748626,0.0138078458 0.976276021,0 L35.1471814,0 C35.4107088,0.0138078458 35.6588896,0.12821732 35.8405398,0.319634529 C36.02219,0.511051738 36.1234569,0.764879389 36.1234569,1.02876829 C36.1234569,1.2926572 36.02219,1.54648377 35.8405398,1.73790098 C35.6588896,1.92931819 35.4107088,2.04372874 35.1471814,2.05753659 L35.1471814,2.05753659 L0.976276021,2.05753659 Z" id="Vector" opacity="0.5"></path>
                    <path d="M0.976276021,25.9970386 C0.712748626,25.9832308 0.464568347,25.8688206 0.282918123,25.677404 C0.101267899,25.4859874 0,25.2321648 0,24.9682767 C0,24.7043887 0.101267899,24.4505618 0.282918123,24.2591452 C0.464568347,24.0677286 0.712748626,23.9533184 0.976276021,23.9395106 L35.1471814,23.9395106 C35.4107088,23.9533184 35.6588896,24.0677286 35.8405398,24.2591452 C36.02219,24.4505618 36.1234569,24.7043887 36.1234569,24.9682767 C36.1234569,25.2321648 36.02219,25.4859874 35.8405398,25.677404 C35.6588896,25.8688206 35.4107088,25.9832308 35.1471814,25.9970386 L0.976276021,25.9970386 Z" id="Vector" opacity="0.5"></path>
                    <path d="M11.5406013,16.4205191 C11.4009687,16.4278353 11.2613092,16.4066502 11.1301278,16.3582536 C10.9989465,16.309857 10.8789902,16.235262 10.777566,16.139013 C10.6761417,16.042764 10.5953723,15.9268759 10.5401779,15.7984068 C10.4849836,15.6699377 10.4565191,15.5315757 10.4565191,15.3917518 C10.4565191,15.2519279 10.4849836,15.113568 10.5401779,14.9850989 C10.5953723,14.8566298 10.6761417,14.7407417 10.777566,14.6444927 C10.8789902,14.5482437 10.9989465,14.4736487 11.1301278,14.4252521 C11.2613092,14.3768556 11.4009687,14.3556704 11.5406013,14.3629866 L19.4179409,14.3629866 C19.5575734,14.3556704 19.697233,14.3768556 19.8284143,14.4252521 C19.9595956,14.4736487 20.0795519,14.5482437 20.1809762,14.6444927 C20.2824004,14.7407417 20.3631688,14.8566298 20.4183631,14.9850989 C20.4735575,15.113568 20.502022,15.2519279 20.502022,15.3917518 C20.502022,15.5315757 20.4735575,15.6699377 20.4183631,15.7984068 C20.3631688,15.9268759 20.2824004,16.042764 20.1809762,16.139013 C20.0795519,16.235262 19.9595956,16.309857 19.8284143,16.3582536 C19.697233,16.4066502 19.5575734,16.4278353 19.4179409,16.4205191 L19.4179409,16.4205191 L11.5406013,16.4205191 Z" id="Vector" opacity="0.5"></path>
                    <path d="M17.8289086,6.8441214 C17.5653815,6.83031357 17.3172032,6.71590316 17.1355531,6.52448617 C16.9539031,6.33306919 16.8526343,6.07924184 16.8526343,5.81535325 C16.8526343,5.55146466 16.9539031,5.29763946 17.1355531,5.10622248 C17.3172032,4.9148055 17.5653815,4.80039508 17.8289086,4.78658725 L25.7090675,4.78658725 C25.9725946,4.80039508 26.220773,4.9148055 26.402423,5.10622248 C26.584073,5.29763946 26.6853419,5.55146466 26.6853419,5.81535325 C26.6853419,6.07924184 26.584073,6.33306919 26.402423,6.52448617 C26.220773,6.71590316 25.9725946,6.83031357 25.7090675,6.8441214 L25.7090675,6.8441214 L17.8289086,6.8441214 Z" id="Vector" opacity="0.5"></path>
                    <path d="M14.8230123,21.2074094 C14.559485,21.1936015 14.3113043,21.0791904 14.1296541,20.8877723 C13.9480039,20.6963541 13.846735,20.4425274 13.846735,20.1786372 C13.846735,19.9147471 13.9480039,19.6609182 14.1296541,19.4695 C14.3113043,19.2780819 14.559485,19.1636708 14.8230123,19.1498629 L28.7149036,19.1498629 C28.9784309,19.1636708 29.2266138,19.2780819 29.408264,19.4695 C29.5899141,19.6609182 29.6911809,19.9147471 29.6911809,20.1786372 C29.6911809,20.4425274 29.5899141,20.6963541 29.408264,20.8877723 C29.2266138,21.0791904 28.9784309,21.1936015 28.7149036,21.2074094 L28.7149036,21.2074094 L14.8230123,21.2074094 Z" id="Vector" opacity="0.5"></path>
                    <path d="M2.39879057,11.6309482 C2.12631865,11.6309482 1.86500671,11.522709 1.67233997,11.3300423 C1.47967324,11.1373755 1.3714341,10.8760635 1.3714341,10.6035916 C1.3714341,10.3311196 1.47967324,10.0698077 1.67233997,9.87714089 C1.86500671,9.68447413 2.12631865,9.57623498 2.39879057,9.57623498 L15.3113088,9.57623498 C15.4462232,9.57623498 15.5798164,9.60280784 15.704461,9.65443735 C15.8291057,9.70606686 15.9423605,9.78174199 16.0377594,9.87714089 C16.1331583,9.97253979 16.2088334,10.0857946 16.2604629,10.2104393 C16.3120924,10.335084 16.3386653,10.4686772 16.3386653,10.6035916 C16.3386653,10.738506 16.3120924,10.8720992 16.2604629,10.9967439 C16.2088334,11.1213885 16.1331583,11.2346434 16.0377594,11.3300423 C15.9423605,11.4254412 15.8291057,11.5011163 15.704461,11.5527458 C15.5798164,11.6043753 15.4462232,11.6309482 15.3113088,11.6309482 L15.3113088,11.6309482 L2.39879057,11.6309482 Z" id="Vector" opacity="0.5"></path>
                </g>
                <path d="M5.24377242,2.05894872 C4.98024512,2.04514087 4.73206439,1.93073027 4.55041423,1.73931297 C4.36876408,1.54789568 4.26749621,1.29406907 4.26749621,1.03018005 C4.26749621,0.766291026 4.36876408,0.512463232 4.55041423,0.321045939 C4.73206439,0.129628647 4.98024512,0.0152191316 5.24377242,0.00141127985 L39.4146628,0.00141127985 C39.5542953,-0.00590494847 39.6939571,0.0152802362 39.8251385,0.0636769204 C39.9563198,0.112073605 40.0762783,0.1866688 40.1777026,0.282918032 C40.2791269,0.379167264 40.3598953,0.495055642 40.4150896,0.623525075 C40.470284,0.751994508 40.4987464,0.89035581 40.4987464,1.03018005 C40.4987464,1.17000428 40.470284,1.30836444 40.4150896,1.43683387 C40.3598953,1.56530331 40.2791269,1.68119273 40.1777026,1.77744196 C40.0762783,1.87369119 39.9563198,1.94828532 39.8251385,1.996682 C39.6939571,2.04507869 39.5542953,2.06626495 39.4146628,2.05894872 L5.24377242,2.05894872 Z" id="Vector"></path>
                <path d="M5.24377242,25.9986686 C4.98024512,25.9848609 4.73206439,25.8704511 4.55041423,25.6790353 C4.36876408,25.4876194 4.26749621,25.2337979 4.26749621,24.9699108 C4.26749621,24.7060237 4.36876408,24.4521978 4.55041423,24.260782 C4.73206439,24.0693661 4.98024512,23.9549563 5.24377242,23.9411486 L39.4146628,23.9411486 C39.5542953,23.9338324 39.6939571,23.9550174 39.8251385,24.0034138 C39.9563198,24.0518101 40.0762783,24.1264026 40.1777026,24.2226511 C40.2791269,24.3188996 40.3598953,24.4347893 40.4150896,24.5632578 C40.470284,24.6917263 40.4987464,24.8300876 40.4987464,24.9699108 C40.4987464,25.109734 40.470284,25.248091 40.4150896,25.3765595 C40.3598953,25.505028 40.2791269,25.6209176 40.1777026,25.7171661 C40.0762783,25.8134146 39.9563198,25.8880071 39.8251385,25.9364035 C39.6939571,25.9847998 39.5542953,26.0059848 39.4146628,25.9986686 L5.24377242,25.9986686 Z" id="Vector"></path>
                <path d="M15.8080419,16.4222193 C15.6684094,16.4295356 15.5287476,16.4083504 15.3975663,16.3599539 C15.266385,16.3115573 15.1464287,16.2369623 15.0450044,16.1407133 C14.9435802,16.0444643 14.8628118,15.9285762 14.8076175,15.8001071 C14.7524231,15.671638 14.7239586,15.533276 14.7239586,15.3934521 C14.7239586,15.2536282 14.7524231,15.1152683 14.8076175,14.9867992 C14.8628118,14.8583301 14.9435802,14.742442 15.0450044,14.646193 C15.1464287,14.549944 15.266385,14.475349 15.3975663,14.4269524 C15.5287476,14.3785558 15.6684094,14.3573707 15.8080419,14.3646869 L23.6882024,14.3646869 C23.9517296,14.3784947 24.1999102,14.492905 24.3815604,14.6843219 C24.5632105,14.8757387 24.6644772,15.1295637 24.6644772,15.3934521 C24.6644772,15.6573405 24.5632105,15.9111676 24.3815604,16.1025844 C24.1999102,16.2940012 23.9517296,16.4084115 23.6882024,16.4222193 L23.6882024,16.4222193 L15.8080419,16.4222193 Z" id="Vector"></path>
                <path d="M22.0963484,6.84570832 C21.8328213,6.83190049 21.5846407,6.71749007 21.4029906,6.52607309 C21.2213405,6.33465611 21.1200738,6.08082876 21.1200738,5.81694016 C21.1200738,5.55305157 21.2213405,5.29922637 21.4029906,5.10780939 C21.5846407,4.91639241 21.8328213,4.80198199 22.0963484,4.78817416 L29.9765094,4.78817416 C30.2400366,4.80198199 30.4882129,4.91639241 30.669863,5.10780939 C30.851513,5.29922637 30.9527841,5.55305157 30.9527841,5.81694016 C30.9527841,6.08082876 30.851513,6.33465611 30.669863,6.52607309 C30.4882129,6.71749007 30.2400366,6.83190049 29.9765094,6.84570832 L29.9765094,6.84570832 L22.0963484,6.84570832 Z" id="Vector"></path>
                <path d="M19.0904494,21.2089963 C18.8269222,21.1951884 18.5787415,21.0807773 18.3970914,20.8893592 C18.2154413,20.6979411 18.1141745,20.4441143 18.1141745,20.1802241 C18.1141745,19.916334 18.2154413,19.6625051 18.3970914,19.4710869 C18.5787415,19.2796688 18.8269222,19.1652577 19.0904494,19.1514498 L32.9823385,19.1514498 C33.2458657,19.1652577 33.4940464,19.2796688 33.6756965,19.4710869 C33.8573466,19.6625051 33.9586134,19.916334 33.9586134,20.1802241 C33.9586134,20.4441143 33.8573466,20.6979411 33.6756965,20.8893592 C33.4940464,21.0807773 33.2458657,21.1951884 32.9823385,21.2089963 L32.9823385,21.2089963 L19.0904494,21.2089963 Z" id="Vector"></path>
                <path d="M6.66906306,11.6325351 C6.53414876,11.6325351 6.4005557,11.6059622 6.27591114,11.5543327 C6.15126658,11.5027032 6.03801186,11.4270281 5.94261304,11.3316292 C5.84721423,11.2362303 5.77153918,11.1229755 5.71990971,10.9983308 C5.66828025,10.8736861 5.64170741,10.7400929 5.64170741,10.6051785 C5.64170741,10.4702641 5.66828025,10.3366709 5.71990971,10.2120262 C5.77153918,10.0873815 5.84721423,9.9741267 5.94261304,9.8787278 C6.03801186,9.78332891 6.15126658,9.70765378 6.27591114,9.65602427 C6.4005557,9.60439476 6.53414876,9.57782189 6.66906306,9.57782189 L19.575926,9.57782189 C19.8483977,9.57782189 20.1097094,9.68606104 20.302376,9.8787278 C20.4950426,10.0713946 20.6032817,10.3327065 20.6032817,10.6051785 C20.6032817,10.8776505 20.4950426,11.1389624 20.302376,11.3316292 C20.1097094,11.524296 19.8483977,11.6325351 19.575926,11.6325351 L19.575926,11.6325351 L6.66906306,11.6325351 Z" id="Vector"></path>
            </g>
        </g>
    </g>
</svg>
